<svg xmlns="http://www.w3.org/2000/svg" width="230.094" height="40" viewBox="0 0 230.094 40">
  <metadata><?xpacket begin="﻿" id="W5M0MpCehiHzreSzNTczkc9d"?>
<x:xmpmeta xmlns:x="adobe:ns:meta/" x:xmptk="Adobe XMP Core 5.6-c142 79.160924, 2017/07/13-01:06:39        ">
   <rdf:RDF xmlns:rdf="http://www.w3.org/1999/02/22-rdf-syntax-ns#">
      <rdf:Description rdf:about=""/>
   </rdf:RDF>
</x:xmpmeta>
                                                                                                    
                                                                                                    
                                                                                                    
                                                                                                    
                                                                                                    
                                                                                                    
                                                                                                    
                                                                                                    
                                                                                                    
                                                                                                    
                                                                                                    
                                                                                                    
                                                                                                    
                                                                                                    
                                                                                                    
                                                                                                    
                                                                                                    
                                                                                                    
                                                                                                    
                                                                                                    
                           
<?xpacket end="w"?></metadata>
<defs>
    <style>
      .cls-1 {
        fill: #292929;
        fill-rule: evenodd;
      }
    </style>
  </defs>
  <path id="Фигура_1" data-name="Фигура 1" class="cls-1" d="M549.422,50.425A9.089,9.089,0,0,0,555.4,48.2V42.123h-6.081v2.661h3.1v2a4.914,4.914,0,0,1-2.9.84,4.2,4.2,0,0,1-4.241-4.441,4.217,4.217,0,0,1,4.021-4.4,5.159,5.159,0,0,1,3.661,1.42l1.94-2.34a7.688,7.688,0,0,0-5.5-1.92,7.187,7.187,0,0,0-7.342,7.242A7.018,7.018,0,0,0,549.422,50.425Zm10.938-.24h3.081V45.7h2.381l3.04,4.481h3.6l-3.421-5a4.348,4.348,0,0,0,3-4.341,4.428,4.428,0,0,0-1.2-3.241,5.583,5.583,0,0,0-4.081-1.42h-6.4v14Zm3.081-7.2V38.962H566.5c1.5,0,2.42.68,2.42,2,0,1.22-.86,2.02-2.36,2.02h-3.121Zm12.179,7.2h3.141l1.28-3.141h5.921l1.281,3.141h3.22l-6-14.1h-2.841Zm5.521-5.861L583,39.783l1.86,4.541h-3.721Zm13.479,5.861h3.041v-8.9l6.781,8.9h2.621v-14h-3.041V44.8l-6.561-8.622H594.62v14Zm17.94,0h3.081v-14H612.56v14Zm11.841,0h3.081V39.023h4.261V36.182h-11.6v2.841H624.4V50.185ZM542.11,68.76h0.484L542.7,67h6.634v1.76h0.484l0.11-2.288h-1.045V59.3h-4.72v1.628a10.215,10.215,0,0,1-1.232,5.545H542.11V68.76Zm1.485-2.288a10.06,10.06,0,0,0,1.133-5.127V59.827h3.587v6.645H543.6Zm10.176,0.66a2.938,2.938,0,1,0-2.872-2.937A2.9,2.9,0,0,0,553.771,67.132Zm0.022-.506a2.435,2.435,0,1,1,2.288-2.431A2.377,2.377,0,0,1,553.793,66.626Zm7.006,0.506a2.889,2.889,0,0,0,2.289-1.111l-0.4-.352a2.482,2.482,0,0,1-1.859.957,2.436,2.436,0,0,1-.045-4.863,2.528,2.528,0,0,1,1.871.924l0.374-.385a2.84,2.84,0,0,0-2.234-1.045A2.938,2.938,0,0,0,560.8,67.132ZM566.013,67h0.539V61.873h2.1V61.389h-4.742v0.484h2.1V67Zm5.479,0.132a2.552,2.552,0,0,0,2.145-1.067V67h0.528V63.5a2.13,2.13,0,0,0-.572-1.584,2.423,2.423,0,0,0-1.771-.616,4.509,4.509,0,0,0-1.992.484l0.2,0.473a3.76,3.76,0,0,1,1.761-.451,1.614,1.614,0,0,1,1.848,1.716v0.242a6.75,6.75,0,0,0-1.859-.242c-1.453,0-2.454.66-2.454,1.826A1.9,1.9,0,0,0,571.492,67.132Zm0.033-.506a1.375,1.375,0,0,1-1.618-1.287c0-.8.649-1.331,1.838-1.331a7.437,7.437,0,0,1,1.9.253V64.9A1.926,1.926,0,0,1,571.525,66.626ZM576.1,67h2.685c1.21,0,2.013-.594,2.013-1.529a1.471,1.471,0,0,0-1.265-1.4,1.335,1.335,0,0,0,.946-1.287c0-.858-0.726-1.4-1.815-1.4H576.1V67Zm0.539-.484V64.349h1.948c1.078,0,1.65.4,1.65,1.045a1.263,1.263,0,0,1-1.518,1.122h-2.08Zm0-2.618V61.873h1.981a1.076,1.076,0,0,1,1.309.946,1.143,1.143,0,0,1-1.342,1.078h-1.948ZM582.48,67h0.539V65.636l1.365-1.375L586.606,67h0.682l-2.53-3.124,2.453-2.486H586.5l-3.477,3.6v-3.6H582.48V67Zm7.6,0.132a2.552,2.552,0,0,0,2.145-1.067V67h0.528V63.5a2.13,2.13,0,0,0-.572-1.584,2.423,2.423,0,0,0-1.771-.616,4.512,4.512,0,0,0-1.992.484l0.2,0.473a3.763,3.763,0,0,1,1.761-.451,1.614,1.614,0,0,1,1.848,1.716v0.242a6.75,6.75,0,0,0-1.859-.242c-1.453,0-2.454.66-2.454,1.826A1.9,1.9,0,0,0,590.082,67.132Zm0.033-.506a1.375,1.375,0,0,1-1.618-1.287c0-.8.649-1.331,1.838-1.331a7.437,7.437,0,0,1,1.9.253V64.9A1.926,1.926,0,0,1,590.115,66.626ZM597.99,67h0.539V64.371h3.73V67H602.8V61.389h-0.539v2.5h-3.73v-2.5H597.99V67Zm9.219,0.132a2.949,2.949,0,0,0,2.321-1.056l-0.374-.33a2.519,2.519,0,0,1-1.925.88,2.226,2.226,0,0,1-2.2-2.211h4.654a1.4,1.4,0,0,0,.011-0.22,2.657,2.657,0,0,0-2.574-2.937,2.766,2.766,0,0,0-2.663,2.926A2.8,2.8,0,0,0,607.209,67.132Zm-2.179-3.2a2.187,2.187,0,0,1,2.069-2.178,2.08,2.08,0,0,1,2.013,2.178H605.03Zm6.237,4.83h0.539V65.79a2.7,2.7,0,0,0,2.311,1.342,2.945,2.945,0,0,0,0-5.875,2.712,2.712,0,0,0-2.311,1.386V61.389h-0.539V68.76Zm2.795-2.145a2.424,2.424,0,0,1,0-4.841,2.258,2.258,0,0,1,2.2,2.42A2.2,2.2,0,0,1,614.062,66.615Zm4.928,2.178c0.8,0,1.375-.418,1.87-1.6l2.431-5.809H622.7l-2.024,5.017-2.333-5.017h-0.627l2.7,5.578c-0.418.979-.8,1.32-1.386,1.32a1.962,1.962,0,0,1-.958-0.209l-0.187.473A2.529,2.529,0,0,0,618.99,68.793Zm4.7-.209h0.452L624.248,67h5.115v1.584h0.44l0.11-2.068h-0.9V61.389h-3.762v1.188a7.607,7.607,0,0,1-.825,3.939h-0.738v2.068Zm1.332-2.068a7.85,7.85,0,0,0,.748-3.631V61.873h2.706v4.643h-3.454ZM631.266,67H631.8V64.371h3.729V67h0.539V61.389h-0.539v2.5H631.8v-2.5h-0.539V67Zm6.853,0h2.31a1.823,1.823,0,0,0,2.046-1.8c0-1.155-.979-1.65-2.145-1.65h-1.672V61.389h-0.539V67Zm0.539-.484V64.03H640.3c0.979,0,1.6.429,1.6,1.188a1.328,1.328,0,0,1-1.551,1.3h-1.683ZM643.6,67h0.539V61.389H643.6V67Zm2.057,0H646.3l1.98-2.5,1.98,2.5h0.671l-2.3-2.871,2.211-2.739H650.2L648.3,63.766l-1.892-2.376h-0.671l2.211,2.75Zm10.1,0h0.517V62.324l2.233,3.1,2.255-3.1V67H661.3V61.389h-0.484l-2.288,3.224-2.288-3.224h-0.484V67Zm9.3,0.132a2.552,2.552,0,0,0,2.145-1.067V67h0.528V63.5a2.13,2.13,0,0,0-.572-1.584,2.423,2.423,0,0,0-1.771-.616,4.508,4.508,0,0,0-1.991.484l0.2,0.473a3.759,3.759,0,0,1,1.76-.451,1.614,1.614,0,0,1,1.848,1.716v0.242a6.75,6.75,0,0,0-1.859-.242c-1.452,0-2.453.66-2.453,1.826A1.9,1.9,0,0,0,665.047,67.132Zm0.033-.506a1.375,1.375,0,0,1-1.617-1.287c0-.8.649-1.331,1.837-1.331a7.437,7.437,0,0,1,1.9.253V64.9A1.926,1.926,0,0,1,665.08,66.626ZM671.064,67H671.6V61.873h2.1V61.389h-4.741v0.484h2.1V67Zm6.028,0.132a2.949,2.949,0,0,0,2.321-1.056l-0.374-.33a2.519,2.519,0,0,1-1.925.88,2.225,2.225,0,0,1-2.2-2.211h4.653a1.4,1.4,0,0,0,.011-0.22A2.657,2.657,0,0,0,677,61.257a2.765,2.765,0,0,0-2.662,2.926A2.794,2.794,0,0,0,677.092,67.132Zm-2.178-3.2a2.186,2.186,0,0,1,2.068-2.178A2.08,2.08,0,0,1,679,63.931h-4.081Zm6.237,4.83h0.539V65.79A2.7,2.7,0,0,0,684,67.132a2.945,2.945,0,0,0,0-5.875,2.709,2.709,0,0,0-2.31,1.386V61.389h-0.539V68.76Zm2.794-2.145a2.424,2.424,0,0,1,0-4.841,2.258,2.258,0,0,1,2.2,2.42A2.2,2.2,0,0,1,683.945,66.615ZM688.411,67h0.539l3.806-4.9V67H693.3V61.389h-0.539l-3.806,4.9v-4.9h-0.539V67Zm8.635,0.132a2.552,2.552,0,0,0,2.145-1.067V67h0.528V63.5a2.13,2.13,0,0,0-.572-1.584,2.423,2.423,0,0,0-1.771-.616,4.508,4.508,0,0,0-1.991.484l0.2,0.473a3.759,3.759,0,0,1,1.76-.451,1.614,1.614,0,0,1,1.848,1.716v0.242a6.75,6.75,0,0,0-1.859-.242c-1.452,0-2.453.66-2.453,1.826A1.9,1.9,0,0,0,697.046,67.132Zm0.033-.506a1.375,1.375,0,0,1-1.617-1.287c0-.8.649-1.331,1.837-1.331a7.437,7.437,0,0,1,1.9.253V64.9A1.926,1.926,0,0,1,697.079,66.626Zm4.213,0.462c1.034,0,1.716-.418,1.727-5.061V61.873h2.761V67h0.539V61.389H702.5v0.3c-0.022,4.566-.55,4.9-1.3,4.9a2.33,2.33,0,0,1-.43-0.077l-0.1.5A2.782,2.782,0,0,0,701.292,67.088Zm9.559,0.044a2.938,2.938,0,1,0-2.871-2.937A2.9,2.9,0,0,0,710.851,67.132Zm0.022-.506a2.435,2.435,0,1,1,2.288-2.431A2.377,2.377,0,0,1,710.873,66.626ZM715.405,67h2.684c1.21,0,2.013-.594,2.013-1.529a1.471,1.471,0,0,0-1.265-1.4,1.335,1.335,0,0,0,.946-1.287c0-.858-0.726-1.4-1.815-1.4h-2.563V67Zm0.539-.484V64.349h1.947c1.078,0,1.65.4,1.65,1.045a1.263,1.263,0,0,1-1.518,1.122h-2.079Zm0-2.618V61.873h1.98a1.076,1.076,0,0,1,1.309.946,1.143,1.143,0,0,1-1.342,1.078h-1.947ZM490,66.6V64.229a3,3,0,0,1,2.965-3.027h17.006c2.326,0,3.525,1.124,3.525,2.8v3.374c0,1.749-1.151,2.624-3.525,2.624H492.742C491.012,70,490,68.825,490,66.6Zm3.356,0.2H510.14a0.226,0.226,0,0,0,.223-0.228V64.629a0.226,0.226,0,0,0-.223-0.228H493.356a0.226,0.226,0,0,0-.223.228v1.943A0.226,0.226,0,0,0,493.356,66.8Zm9.735-23.993a0.225,0.225,0,0,1,.223.228v7.427h0L502.428,52.9a0.228,0.228,0,0,0,.21.307h1.243a0.223,0.223,0,0,0,.182-0.095l16.2-23.043a0.22,0.22,0,0,1,.3-0.062l3.246,2a0.23,0.23,0,0,1,.079.308l-0.957,1.713a0.232,0.232,0,0,0-.029.113V44.179a0.226,0.226,0,0,0,.223.228h0.676a0.227,0.227,0,0,1,.221.26L523.3,49.809a0.225,0.225,0,0,1-.221.2h-0.185v1.549a0.226,0.226,0,0,0,.121.2,2.561,2.561,0,0,1,.741,3.944,0.231,0.231,0,0,0,.016.33l3.6,3.173a0.229,0.229,0,0,1-.146.4h-0.515a0.218,0.218,0,0,1-.146-0.055l-3.6-3.168a0.217,0.217,0,0,0-.216-0.044,2.859,2.859,0,0,1-.948.167,2.145,2.145,0,0,1-.922-0.214,0.219,0.219,0,0,0-.235.029l-3.9,3.233a0.22,0.22,0,0,1-.141.051l-0.454,0a0.258,0.258,0,0,1-.156-0.456l3.982-3.3a0.228,0.228,0,0,0,.045-0.3,2.5,2.5,0,0,1-.406-1.422,0.783,0.783,0,1,1,1.566,0,1.2,1.2,0,0,0,.031.286,0.221,0.221,0,0,0,.357.121l0,0a0.385,0.385,0,0,1,.5.008l0.172,0.151a0.219,0.219,0,0,0,.282.008,0.843,0.843,0,0,0,.289-0.706,0.972,0.972,0,0,0-.834-0.924,0.8,0.8,0,0,1-.654-0.79V50.233a0.225,0.225,0,0,0-.223-0.228h-0.463a0.225,0.225,0,0,1-.219-0.183l-1.006-5.143a0.226,0.226,0,0,1,.219-0.273h0.686a0.226,0.226,0,0,0,.223-0.228V39.535a0.222,0.222,0,0,0-.421-0.1l-8.952,17.593a0.238,0.238,0,0,0-.025.105v0.647a0.226,0.226,0,0,1-.223.228h-2.686a0.226,0.226,0,0,0-.224.228v1.144a0.225,0.225,0,0,1-.223.228h-11.3a0.226,0.226,0,0,1-.223-0.228V58.231A0.226,0.226,0,0,0,496.043,58H491.79a0.226,0.226,0,0,1-.223-0.228V43.035a0.225,0.225,0,0,1,.223-0.228h11.3Zm7,4.159-0.01.014,2.614,1.736a0.225,0.225,0,0,0,.33-0.274l-1.243-3.255a0.222,0.222,0,0,0-.389-0.051Zm11.238-2.787a0.226,0.226,0,0,0,.224.228h0.336a0.226,0.226,0,0,0,.224-0.228V36.5a0.223,0.223,0,0,0-.421-0.107l-0.337.649a0.233,0.233,0,0,0-.026.107v7.029Zm-0.384-8.5,0.96-1.863a0.229,0.229,0,0,0-.075-0.3l-1.5-1.005a0.224,0.224,0,0,0-.342.233l0.537,2.868A0.222,0.222,0,0,0,520.943,35.678Zm-2.417-1.319-1.109,1.965a0.231,0.231,0,0,0,.073.305l1.79,1.177a0.224,0.224,0,0,0,.339-0.241l-0.681-3.143A0.222,0.222,0,0,0,518.526,34.359ZM518.4,39.522l-1.656-1.1a0.225,0.225,0,0,0-.34.24l0.649,3.011a0.221,0.221,0,0,0,.414.059l1.008-1.912A0.231,0.231,0,0,0,518.4,39.522Zm-3.374.393-1.259,1.874a0.231,0.231,0,0,0,.064.321l1.892,1.237a0.224,0.224,0,0,0,.339-0.238L515.429,40A0.221,0.221,0,0,0,515.027,39.915Zm0.394,5.523-2.087-1.46a0.225,0.225,0,0,0-.335.268l1.188,3.249a0.222,0.222,0,0,0,.408.024l0.9-1.79A0.232,0.232,0,0,0,515.421,45.438Zm-3.8,7.314,1.042-1.877a0.232,0.232,0,0,0-.065-0.3l-2.586-1.886a0.225,0.225,0,0,0-.336.274l1.545,3.764A0.221,0.221,0,0,0,511.618,52.752Zm-1.585,1.5-1.861-4.1a0.22,0.22,0,0,0-.382-0.039l-1.514,2.108a0.231,0.231,0,0,0,.069.332l3.374,1.988A0.225,0.225,0,0,0,510.033,54.251Zm-15.11-3.446h5.035a0.226,0.226,0,0,0,.224-0.228V46.235a0.226,0.226,0,0,0-.224-0.228h-5.035a0.226,0.226,0,0,0-.224.228v4.343A0.226,0.226,0,0,0,494.923,50.805Zm32.294,13.6h0.56a0.226,0.226,0,0,1,.223.228v1.144a0.226,0.226,0,0,1-.223.228H515.692a0.226,0.226,0,0,1-.223-0.228V64.629a0.226,0.226,0,0,1,.223-0.228h1.12a0.226,0.226,0,0,0,.224-0.228V62.23A0.226,0.226,0,0,0,516.812,62h-1.12a0.226,0.226,0,0,1-.223-0.228V60.63a0.226,0.226,0,0,1,.223-0.228h12.085a0.226,0.226,0,0,1,.223.228v1.144a0.226,0.226,0,0,1-.223.228h-1.12a0.225,0.225,0,0,0-.223.228v1.944a0.226,0.226,0,0,0,.223.228h0.56Z" transform="translate(-490 -30)"/>
</svg>
